<svg width="24" height="24" viewBox="0 0 24 24" fill="none" xmlns="http://www.w3.org/2000/svg">
  <path fill-rule="evenodd" clip-rule="evenodd" d="M19 3.99921H18V1.99921H16V3.99921H8V1.99921H6V3.99921H5C3.89 3.99921 3.01 4.89921 3.01 5.99921L3 19.9992C3 21.0992 3.89 21.9992 5 21.9992H19C20.1 21.9992 21 21.0992 21 19.9992V5.99921C21 4.89921 20.1 3.99921 19 3.99921ZM19.002 19.9992H5.00195V7.99921H19.002V19.9992Z" fill="#ffffff"/>
  <g opacity="0.6">
    <path d="M6.99805 10.0007H8.99805V12.0007H6.99805V10.0007Z" fill="#ffffff"/>
    <path d="M6.99805 13.0007H8.99805V15.0007H6.99805V13.0007Z" fill="#ffffff"/>
    <path d="M8.99805 16.0007H6.99805V18.0007H8.99805V16.0007Z" fill="#ffffff"/>
    <path d="M10.998 10.0007H12.998V12.0007H10.998V10.0007Z" fill="#ffffff"/>
    <path d="M12.998 13.0007H10.998V15.0007H12.998V13.0007Z" fill="#ffffff"/>
    <path d="M10.998 16.0007H12.998V18.0007H10.998V16.0007Z" fill="#ffffff"/>
    <path d="M16.998 10.0007H14.998V12.0007H16.998V10.0007Z" fill="#ffffff"/>
    <path d="M14.998 13.0007H16.998V15.0007H14.998V13.0007Z" fill="#ffffff"/>
    <path d="M16.998 16.0007H14.998V18.0007H16.998V16.0007Z" fill="#ffffff"/>
  </g>
</svg>