<svg width="13" height="15" viewBox="0 0 13 15" fill="none" xmlns="http://www.w3.org/2000/svg">
<path fill-rule="evenodd" clip-rule="evenodd" d="M5.2853 14.0816C3.65395 12.6346 0.0253906 9.10044 0.0253906 6.29198C0.0253906 2.66914 2.44062 0.253906 6.06346 0.253906C9.68631 0.253906 12.1015 3.27294 12.1015 6.29198C12.1015 8.64813 8.42392 12.4753 6.80893 14.0424C6.38464 14.4541 5.72758 14.4739 5.2853 14.0816ZM8.07615 5.48709C8.07615 6.59867 7.17504 7.49979 6.06346 7.49979C4.95188 7.49979 4.05077 6.59867 4.05077 5.48709C4.05077 4.37552 4.95188 3.4744 6.06346 3.4744C7.17504 3.4744 8.07615 4.37552 8.07615 5.48709Z" fill="#F4F4F5"/>
</svg>