<svg width="21" height="22" viewBox="0 0 21 22" fill="none" xmlns="http://www.w3.org/2000/svg">
  <path d="M15.1666 7.66598C14.7062 7.66598 14.3331 7.29281 14.3331 6.83248C14.3331 6.37215 14.7062 5.99898 15.1666 5.99898H16.0001C17.8414 5.99898 19.3341 7.49166 19.3341 9.33298V16.001C19.3341 17.8423 17.8414 19.335 16.0001 19.335H5.99806C4.15675 19.335 2.66406 17.8423 2.66406 16.001L2.66406 9.32719C2.66406 7.48588 4.15675 5.99319 5.99806 5.99319H6.83157C7.2919 5.99319 7.66507 6.36637 7.66507 6.82669C7.66507 7.28702 7.2919 7.66019 6.83157 7.66019H5.99806C5.0774 7.66019 4.33106 8.40654 4.33106 9.32719V16.001C4.33106 16.9216 5.0774 17.668 5.99806 17.668H16.0001C16.9207 17.668 17.6671 16.9216 17.6671 16.001V9.33298C17.6671 8.41232 16.9207 7.66598 16.0001 7.66598H15.1666Z" fill="#ffffff"/>
  <rect width="1.667" height="10.002" rx="0.8335" transform="matrix(-1 0 0 1 11.832 2.66498)" fill="#ffffff"/>
  <path d="M10.9981 3.01024L12.9092 4.92137C13.2347 5.24687 13.7624 5.24687 14.0879 4.92137C14.4134 4.59587 14.4134 4.06813 14.0879 3.74262L11.5874 1.24212C11.2619 0.916621 10.7342 0.916621 10.4087 1.24212L7.90819 3.74262C7.58269 4.06813 7.58269 4.59587 7.90819 4.92137C8.23369 5.24687 8.76143 5.24687 9.08694 4.92137L10.9981 3.01024Z" fill="#ffffff"/>
</svg>