<svg width="89" height="27" viewBox="0 0 89 27" fill="none" xmlns="http://www.w3.org/2000/svg">
  <path fill-rule="evenodd" clip-rule="evenodd" d="M27.8959 26.3214V0.413527H27.8975C27.8975 0.184871 27.7126 0 27.484 0H22.3271C22.1795 0 22.0433 0.0794621 21.9687 0.207574L19.8849 3.81742L18.0313 7.02996C17.8724 7.30565 17.4734 7.30565 17.3145 7.02996L14.308 1.82276C14.149 1.54708 13.7501 1.54708 13.5912 1.82276L10.5846 7.03158C10.4257 7.30727 10.0268 7.30727 9.86783 7.03158L8.01265 3.81742L5.92881 0.207574C5.85421 0.0794621 5.71799 0 5.57042 0H0.413525C0.18487 0 0 0.184871 0 0.413527V26.3214C0 26.5501 0.18487 26.7349 0.413525 26.7349H10.7776C10.9252 26.7349 11.0614 26.6555 11.136 26.5274L13.5879 22.2753C13.7469 21.9996 14.1458 21.9996 14.3047 22.2753L16.7615 26.529C16.8361 26.6555 16.9723 26.7349 17.1199 26.7349H27.4824C27.711 26.7349 27.8959 26.5501 27.8959 26.3214ZM85.1713 11.1571L81.9636 13.0091C81.6879 13.168 81.6879 13.5669 81.9636 13.7259L85.1713 15.5778L88.7924 17.6682C88.9205 17.7428 89 17.879 89 18.0265V26.3198C89 26.5484 88.8151 26.7333 88.5865 26.7333H78.2208C78.0732 26.7333 77.937 26.6539 77.8624 26.5257L76.5164 24.1938L75.4088 22.2753C75.2499 21.9996 74.851 21.9996 74.6921 22.2753L72.2369 26.5274C72.1623 26.6555 72.026 26.7349 71.8785 26.7349H61.5144C61.2857 26.7349 61.1009 26.5501 61.1009 26.3214V0.413527C61.1009 0.184871 61.2857 0 61.5144 0H71.8785C72.026 0 72.1623 0.0794621 72.2369 0.207574L74.6921 4.45961C74.851 4.73529 75.2499 4.73529 75.4088 4.45961L77.8624 0.207574C77.937 0.0794621 78.0732 0 78.2208 0H88.5865C88.8151 0 89 0.184871 89 0.413527V8.7084C89 8.85597 88.9205 8.99219 88.7924 9.06679L85.1713 11.1571ZM55.3598 11.5855L52.8965 13.0077C52.6208 13.1667 52.6208 13.5656 52.8965 13.7245L55.3598 15.1467L58.2366 16.8073C58.3648 16.8819 58.4442 17.0181 58.4442 17.1657V23.5616C58.4442 23.7092 58.3648 23.8454 58.2366 23.92L53.4608 26.6784C53.3976 26.7141 53.3262 26.7336 53.2533 26.7336H30.9586C30.7299 26.7336 30.5451 26.5487 30.5451 26.32V0.413816C30.5451 0.18516 30.7299 0.000289714 30.9586 0.000289714H53.2533C53.3262 0.000289714 53.3976 0.0197498 53.4608 0.0554266L58.2366 2.81389C58.3648 2.88849 58.4442 3.02471 58.4442 3.17228V9.56816C58.4442 9.71573 58.3648 9.85195 58.2366 9.92655L55.3598 11.5871V11.5855Z" fill="#F84878"/>
</svg>