<svg width="24" height="23" viewBox="0 0 24 23" fill="none" xmlns="http://www.w3.org/2000/svg">
<path d="M0.166565 0H23.1666V23H0.166565V0Z" fill="white"/>
<path fill-rule="evenodd" clip-rule="evenodd" d="M1.85373 1.59912H21.4911V12.3315H20.4706C20.1742 12.3315 19.9439 12.4137 19.7791 12.5289V12.3315H18.2812C18.0345 12.3315 17.7546 12.3972 17.6064 12.5289V12.3314H14.9233V12.5288C14.693 12.3642 14.3472 12.3314 14.1661 12.3314H12.3884V12.5288C12.2239 12.3642 11.8451 12.3314 11.6149 12.3314H9.62313L9.16219 12.825L8.73419 12.3314H5.77131V15.5575H8.68503L9.16231 15.0636L9.5902 15.5575H11.4008V14.8003H11.5655C11.8123 14.8003 12.0923 14.8003 12.339 14.6851V15.5575H13.8205V14.7181H13.9027C13.9852 14.7181 14.0015 14.7181 14.0015 14.8169V15.5575H18.5118C18.7915 15.5575 19.0879 15.4918 19.2524 15.3599V15.5575H20.6845C20.9808 15.5575 21.2772 15.5081 21.4911 15.4093V21.3187H1.85373V11.5905H2.80854L3.02249 11.0638H3.4999L3.69737 11.5905H5.55748V11.1955L5.72203 11.5905H6.69319L6.85773 11.179V11.5905H11.4668V10.7346H11.549C11.6149 10.7346 11.6313 10.7511 11.6313 10.8499V11.5907H14.0181V11.3932C14.2155 11.4919 14.5119 11.5907 14.9069 11.5907H15.9109L16.1249 11.064H16.6024L16.8163 11.5907H18.7423V11.0969L19.0385 11.5907H20.5856V8.36443H19.0549V8.74304L18.8244 8.36443H17.2607V8.74304L17.0631 8.36443H14.9398C14.5775 8.36443 14.2648 8.41371 14.018 8.54544V8.36443H12.5531V8.54544C12.3883 8.41383 12.1744 8.36443 11.9276 8.36443H6.57792L6.21578 9.18739L5.83717 8.36443H4.15819V8.74304L3.9606 8.36443H2.52862L1.85373 9.89521V1.59912ZM19.3018 11.1297H20.0917V8.82525H19.5322V10.4219L18.5611 8.82525H17.705V10.9981L16.7833 8.82537H15.9602L15.1702 10.636H14.9232C14.7752 10.636 14.6269 10.603 14.5447 10.5208C14.4459 10.4056 14.3965 10.2244 14.3965 9.97754C14.3965 9.73067 14.4459 9.54965 14.5447 9.45086C14.6598 9.35206 14.7752 9.31912 14.9726 9.31912H15.4993V8.82525H14.9726C14.5941 8.82525 14.2977 8.90746 14.1331 9.08859C13.8864 9.33547 13.837 9.64821 13.837 9.99389C13.837 10.4054 13.9358 10.6688 14.1169 10.8663C14.3143 11.0638 14.6599 11.1297 14.9233 11.1297H15.5654L15.7793 10.6194H16.9315L17.1457 11.1297H18.2648V9.40134L19.3018 11.1297ZM21.6227 14.3725C21.6227 14.8664 21.31 15.0966 20.7503 15.0966H19.6805V14.6027H20.7503C20.8491 14.6027 20.9314 14.5863 20.9644 14.5535C20.9972 14.5205 21.0302 14.4711 21.0302 14.4053C21.0302 14.3394 20.9974 14.2736 20.9644 14.2408C20.9314 14.2077 20.8656 14.1914 20.7668 14.1914C20.7342 14.1903 20.701 14.1895 20.6674 14.1886C20.1771 14.1759 19.6147 14.1614 19.6147 13.4836C19.6147 13.1542 19.8286 12.7921 20.4047 12.7921H21.5075V13.286H20.4869C20.3884 13.286 20.3224 13.286 20.273 13.3188C20.2236 13.3682 20.1908 13.4176 20.1908 13.4999C20.1908 13.5823 20.2402 13.6317 20.3059 13.6647L20.3073 13.6651C20.3728 13.6813 20.4383 13.6975 20.5201 13.6975H20.8162C21.129 13.6975 21.3266 13.7633 21.4583 13.8787C21.5569 13.9938 21.6227 14.1421 21.6227 14.3725ZM1.39291 21.0224C1.39291 20.8251 1.22837 20.6603 1.0143 20.6603C0.816825 20.6603 0.652161 20.8251 0.652161 21.0224C0.652161 21.2364 0.816825 21.4012 1.0143 21.4012C1.22825 21.4011 1.39291 21.2364 1.39291 21.0224ZM1.1131 21.2035H1.17885V21.1706C1.17063 21.1706 1.16652 21.1706 1.16445 21.1686C1.16238 21.1665 1.16238 21.1624 1.16238 21.1541V21.0883C1.16238 21.0554 1.14603 21.0389 1.12957 21.0223C1.14591 21.0061 1.16238 20.9895 1.16238 20.9401C1.16238 20.8745 1.1131 20.8579 1.04724 20.8579H0.899038V21.2035H0.948437V21.0555H1.04724C1.09663 21.0555 1.09663 21.0883 1.09663 21.1047C1.09663 21.1116 1.09948 21.1241 1.1028 21.1388C1.10748 21.1594 1.1131 21.1843 1.1131 21.2035ZM1.0637 20.9073C1.08017 20.9073 1.1131 20.9073 1.1131 20.9567C1.1131 20.9895 1.08017 21.0061 1.04724 21.0061H0.948437V20.9073H1.0637ZM1.0143 21.3352C1.19543 21.3352 1.34351 21.2036 1.34351 21.0224C1.34351 20.8579 1.19531 20.7097 1.0143 20.7097C0.833291 20.7097 0.70156 20.8579 0.70156 21.0224C0.70156 21.2035 0.833172 21.3352 1.0143 21.3352ZM18.6597 13.6975C18.9725 13.6975 19.1701 13.7633 19.3018 13.8787C19.4006 13.9938 19.4664 14.1421 19.4664 14.3725C19.4664 14.8663 19.1535 15.0966 18.594 15.0966H17.524V14.6027H18.594C18.6928 14.6027 18.7585 14.5863 18.8079 14.5535C18.8409 14.5205 18.8739 14.4711 18.8739 14.4053C18.8739 14.3394 18.8407 14.2736 18.8079 14.2408C18.7751 14.2077 18.7091 14.1914 18.6106 14.1914C18.578 14.1903 18.5448 14.1895 18.5113 14.1886C18.0208 14.1759 17.4582 14.1613 17.4582 13.4836C17.4582 13.1542 17.6558 12.7921 18.2484 12.7921H19.3512V13.286H18.3306C18.2318 13.286 18.1661 13.286 18.1167 13.3188C18.0508 13.3682 18.0345 13.4176 18.0345 13.4999C18.0345 13.5823 18.0836 13.6317 18.1496 13.6647L18.1524 13.6654C18.2173 13.6814 18.2825 13.6975 18.3636 13.6975H18.6597ZM17.1948 14.6194H15.8947V14.1585H17.162V13.6978H15.8947V13.2696H17.1948V12.7923H15.3514V15.0967H17.1948V14.6194ZM14.0839 12.7922C14.3637 12.7922 14.5776 12.8088 14.7587 12.9076C14.9399 13.0062 15.0387 13.1544 15.0388 13.4176C15.0388 13.7799 14.7917 13.9774 14.6437 14.0266C14.7755 14.076 14.874 14.1582 14.9234 14.2242C14.9893 14.3394 15.0056 14.4382 15.0056 14.6521V15.0966H14.4626V14.8169C14.4626 14.6687 14.4626 14.4711 14.3638 14.3559C14.2815 14.2737 14.1661 14.2571 13.9687 14.2571H13.376V15.0966H12.8165V12.7922H14.0839ZM11.6313 12.7922H9.87001L9.16219 13.5494L8.48731 12.7922H6.26518V15.0966H8.4545L9.16231 14.3394L9.8372 15.0966H10.9072V14.3231H11.5985C12.0758 14.3231 12.5533 14.1914 12.5533 13.5494C12.5532 12.924 12.0593 12.7922 11.6313 12.7922ZM14.0509 13.7799C14.1497 13.7799 14.2321 13.7799 14.3143 13.747C14.3803 13.6976 14.4294 13.6153 14.4294 13.5165C14.4294 13.4177 14.3803 13.352 14.3143 13.3189C14.2485 13.2695 14.1497 13.2695 14.0509 13.2695H13.376V13.7964L14.0509 13.7799ZM11.6313 13.8622H10.907V13.2695H11.6313C11.8289 13.2695 11.9605 13.352 11.9605 13.5494C11.9605 13.747 11.8288 13.8622 11.6313 13.8622ZM10.3638 13.0392L9.50787 13.9444L10.3638 14.8992V13.0392ZM8.17457 14.6194H6.80833V14.1585H8.02637V13.6978H6.80833V13.2696H8.19103L8.80005 13.9445L8.17457 14.6194ZM13.5572 8.82525H12.9977V11.1297H13.5572V8.82525ZM11.7301 8.82525C12.0099 8.82525 12.2073 8.82525 12.3884 8.92405C12.5694 9.0392 12.6848 9.18739 12.6847 9.45074C12.6847 9.81288 12.4376 9.99389 12.2896 10.0598C12.4048 10.109 12.5036 10.1914 12.553 10.2572C12.6352 10.3725 12.6515 10.4713 12.6515 10.6688V11.1297H12.092V10.8334C12.092 10.8176 12.0923 10.8008 12.0925 10.7833C12.0943 10.6554 12.0967 10.4903 12.0098 10.389C11.9276 10.3066 11.7959 10.2902 11.5983 10.2902H11.0057V11.1297H10.4626V8.82525H11.7301ZM10.0675 10.6524H8.78359V10.1915H10.051V9.7142H8.78359V9.30266H10.0675V8.82537H8.22397V11.1298H10.0675V10.6524ZM6.90713 8.82525H7.81231V11.1297H7.25269V9.31912L6.44607 11.1297H5.96878L5.16229 9.31912V11.1297H4.04293L3.82899 10.6194H2.67681L2.46287 11.1297H1.87032L2.85794 8.82525H3.68091L4.61913 10.998V8.82525H5.50796L6.23225 10.389L6.90713 8.82525ZM16.7341 10.1256L16.3554 9.22033L15.9769 10.1256H16.7341ZM11.6807 9.813C11.796 9.813 11.8783 9.813 11.9605 9.7636C12.0263 9.73055 12.0592 9.64833 12.0592 9.54965C12.0592 9.45098 12.0262 9.38511 11.9604 9.33571C11.8944 9.30278 11.7794 9.30278 11.6806 9.30278H11.0057V9.813H11.6807ZM2.87429 10.1256L3.2529 9.22033L3.63151 10.1256H2.87429Z" fill="#0077A6"/>
</svg>
