<svg width="41" height="17" viewBox="0 0 41 17" fill="none" xmlns="http://www.w3.org/2000/svg">
<path d="M7.72769 2.24583C8.19862 1.66032 8.51818 0.874163 8.4339 0.0708008C7.74453 0.104874 6.90329 0.522882 6.41625 1.10885C5.97894 1.61063 5.59188 2.42971 5.69279 3.1994C6.46664 3.26612 7.23978 2.81491 7.72769 2.24583Z" fill="white"/>
<path d="M8.42511 3.34968C7.30128 3.28314 6.34576 3.98369 5.80908 3.98369C5.2721 3.98369 4.45027 3.38321 3.56139 3.3994C2.40445 3.41629 1.33095 4.06652 0.74385 5.10069C-0.463706 7.16954 0.425177 10.2384 1.59946 11.9233C2.16972 12.7569 2.85698 13.6748 3.76255 13.6418C4.61816 13.6085 4.95353 13.0911 5.99356 13.0911C7.03283 13.0911 7.33492 13.6418 8.24064 13.6251C9.17989 13.6084 9.76709 12.7911 10.3373 11.9567C10.9915 11.0064 11.2593 10.0889 11.2762 10.0385C11.2593 10.0218 9.46504 9.33761 9.4484 7.28595C9.43146 5.56807 10.8571 4.75095 10.9242 4.70028C10.1191 3.51667 8.86121 3.38321 8.42511 3.34968Z" fill="white"/>
<path fill-rule="evenodd" clip-rule="evenodd" d="M22.3539 5.13515C22.3539 2.69845 20.6531 1.02481 18.2105 1.02481L13.4908 1.02481V13.538H15.4448V9.26289H18.1492C20.6181 9.26289 22.3539 7.58055 22.3539 5.13515ZM17.6868 7.63256H15.4448V2.66382H17.6956C19.388 2.66382 20.3562 3.5657 20.3562 5.14384C20.3562 6.72214 19.388 7.63256 17.6868 7.63256Z" fill="white"/>
<path fill-rule="evenodd" clip-rule="evenodd" d="M26.2756 8.24827C24.0945 8.36971 22.8645 9.34954 22.8645 10.9452C22.8645 12.5841 24.1208 13.6941 25.9179 13.6941C27.1217 13.6941 28.2821 13.0524 28.8142 12.0378H28.8576V13.538H30.6635V7.25105C30.6635 5.42135 29.2416 4.25067 27.017 4.25067C24.7488 4.25067 23.3356 5.46467 23.231 7.11239H25.0106C25.1762 6.29714 25.8567 5.77695 26.9474 5.77695C28.0987 5.77695 28.7879 6.38395 28.7879 7.39857V8.10092L26.2756 8.24827ZM28.7879 9.40173V10.1215C28.7879 11.3094 27.7584 12.2113 26.4412 12.2113C25.4292 12.2113 24.7663 11.6909 24.7663 10.8932C24.7663 10.1128 25.403 9.6185 26.5284 9.54039L28.7879 9.40173Z" fill="white"/>
<path d="M32.3684 16.894V15.3764C32.5077 15.411 32.8217 15.411 32.9788 15.411C33.8512 15.411 34.3223 15.0469 34.6101 14.1104C34.6101 14.093 34.776 13.5554 34.776 13.5467L31.4611 4.41542H33.5022L35.8229 11.8384H35.8576L38.1784 4.41542H40.1673L36.7299 14.0149C35.9451 16.2263 35.0378 16.9373 33.136 16.9373C32.9788 16.9373 32.5077 16.9199 32.3684 16.894Z" fill="white"/>
</svg>
