<svg width="41" height="15" viewBox="0 0 41 15" fill="none" xmlns="http://www.w3.org/2000/svg">
<rect x="0.333984" y="8.57715" width="16.9204" height="5.91638" fill="#84B740"/>
<rect x="0.333984" y="0.503906" width="16.9204" height="5.92166" fill="#259BD6"/>
<path fill-rule="evenodd" clip-rule="evenodd" d="M34.1742 7.74403L34.3098 7.71766C34.7067 7.64911 35.1137 7.57529 35.5055 7.50146V13.4337C35.5055 13.8502 35.3598 14.0453 34.9529 14.1824C34.5108 14.3354 34.0737 14.3986 33.4809 14.3986C32.0793 14.3986 31.2754 13.5339 31.2754 12.031C31.2754 10.9342 31.6221 9.62651 33.2699 9.62651C33.5713 9.62651 33.8828 9.72143 34.0185 9.76361L34.0536 9.77416L34.1742 9.81107V7.74403ZM34.0988 13.3071L34.1742 13.2913V10.8288L34.1089 10.8077C33.8075 10.7128 33.6467 10.6969 33.506 10.6864H33.501C32.6771 10.6864 32.5867 11.451 32.5867 12.0258C32.5867 13.1436 33.1091 13.3809 33.5512 13.3809C33.7337 13.3809 33.8289 13.3617 34.065 13.314C34.076 13.3117 34.0872 13.3095 34.0988 13.3071Z" fill="white"/>
<path fill-rule="evenodd" clip-rule="evenodd" d="M36.8168 9.90598C37.4648 9.69506 37.9873 9.60015 38.4947 9.60015C39.7005 9.60015 40.3134 10.1433 40.3134 11.2084V14.4988C40.0285 14.4421 39.7384 14.388 39.4524 14.3347C39.34 14.3137 39.2283 14.2929 39.1177 14.2721L38.9921 14.251L38.972 14.2457L38.9519 14.251C38.5801 14.3459 38.1481 14.4092 37.8366 14.4092C36.8318 14.4092 36.234 13.8924 36.234 13.0329C36.234 12.0258 36.8821 11.5565 38.2837 11.5565H39.0524V11.2823C39.0524 10.6548 38.4998 10.6548 38.3189 10.6548C37.917 10.6548 37.3794 10.7497 36.9474 10.8973L36.5354 11.0397L36.3948 10.0378L36.8168 9.90598ZM39.0021 13.3493L39.0725 13.3282V12.3791H38.2536C37.6206 12.3791 37.5251 12.7534 37.5251 12.9749C37.5251 13.3177 37.7562 13.518 38.1431 13.518C38.3038 13.518 38.5148 13.4811 38.7509 13.4178L39.0021 13.3493Z" fill="white"/>
<path fill-rule="evenodd" clip-rule="evenodd" d="M27.0604 9.90598C27.7085 9.69506 28.226 9.60015 28.7384 9.60015C29.9441 9.60015 30.557 10.138 30.552 11.2137V14.5041C30.185 14.4261 29.8136 14.3571 29.446 14.2887C29.416 14.2832 29.3862 14.2776 29.3563 14.2721L29.2357 14.251L29.2157 14.2457L29.1956 14.251C28.8238 14.3459 28.3917 14.4092 28.0803 14.4092C27.0705 14.4092 26.4726 13.8924 26.4726 13.0329C26.4726 12.0258 27.1257 11.5565 28.5274 11.5565H29.296V11.2823C29.296 10.6548 28.7434 10.6548 28.5625 10.6548C28.1606 10.6548 27.6231 10.7497 27.191 10.8973L26.7791 11.0397L26.6384 10.0378L27.0604 9.90598ZM29.2408 13.3493L29.3111 13.3282H29.3061V12.3791H28.4872C27.8592 12.3791 27.7638 12.7534 27.7638 12.9749C27.7638 13.3177 27.9949 13.518 28.3817 13.518C28.5475 13.518 28.7535 13.4811 28.9896 13.4178L29.2408 13.3493Z" fill="white"/>
<path d="M24.021 9.61069C23.3829 9.61069 22.8554 9.83216 22.6595 9.92708L22.6093 9.95344L22.5641 9.91653C22.2928 9.71088 21.8959 9.60542 21.3433 9.60542C20.8559 9.60542 20.3988 9.67924 19.9014 9.83216C19.4744 9.96926 19.3086 10.1855 19.3086 10.5915V14.3512H20.6449V10.8762L20.7103 10.8551C20.9815 10.7602 21.1423 10.7444 21.298 10.7444C21.6849 10.7444 21.8808 10.9606 21.8808 11.3824V14.3565H23.1971V11.3244C23.1971 11.1452 23.1619 11.0397 23.1569 11.0186L23.1117 10.929L23.2021 10.8868C23.403 10.7919 23.6241 10.7444 23.8552 10.7444C24.1215 10.7444 24.438 10.8551 24.438 11.3824V14.3565H25.7492V11.2453C25.7492 10.1433 25.1865 9.61069 24.021 9.61069Z" fill="white"/>
<path fill-rule="evenodd" clip-rule="evenodd" d="M38.0476 0.503906H38.0828C39.4493 0.535545 40.3284 1.52161 40.3335 3.02443C40.3335 4.54308 39.4241 5.52914 38.0225 5.52914C37.6055 5.52914 36.9976 5.4395 36.6711 5.27076C36.6599 5.27263 36.6486 5.27451 36.6372 5.27641C36.4242 5.31196 36.1826 5.35226 35.9727 5.39732H29.5171C29.557 5.13424 29.5944 4.87117 29.6272 4.63999C29.6397 4.55144 29.6516 4.46756 29.6628 4.39016H31.7628C31.9285 4.39016 32.034 4.42707 32.0491 4.43234L32.1345 4.4798V3.01389C32.1345 2.13856 31.7979 1.56907 31.1599 1.56907H29.9441C29.9692 1.38187 29.9918 1.22236 30.0144 1.06285C30.0371 0.903342 30.0597 0.743831 30.0848 0.556637H31.3056C32.5565 0.556637 33.4206 1.40033 33.4508 2.93479H33.4558V4.39016H35.8823L35.9275 4.30052C35.9275 4.30052 35.929 4.29634 35.9302 4.29319C35.94 4.26805 35.9677 4.19618 35.9677 4.03686V1.94345C35.9727 1.63234 36.0582 1.36869 36.2089 1.15777C36.4902 0.725375 37.279 0.503906 38.0476 0.503906ZM37.3091 4.28997C37.5653 4.3427 37.8919 4.36379 38.0878 4.36379C38.5249 4.36379 39.0524 4.1265 39.0574 3.00861C39.0574 2.43385 38.9619 1.66925 38.1431 1.66925H38.138C38.1113 1.6716 38.077 1.6729 38.0368 1.67443C37.8957 1.6798 37.6803 1.68799 37.4498 1.75362C37.4424 1.75362 37.4351 1.75645 37.4257 1.76003C37.4223 1.76134 37.4186 1.76276 37.4146 1.76417L37.3242 1.79581L37.3091 1.80635C37.2992 1.81051 37.2901 1.81385 37.2814 1.81702C37.2681 1.82188 37.256 1.82633 37.2438 1.83272L37.1584 1.86963L37.1986 1.954C37.2036 1.96982 37.2337 2.07528 37.2337 2.24402V4.27415L37.3091 4.28997Z" fill="white"/>
<path d="M26.8243 6.01426C28.226 6.01426 28.8791 5.52914 28.8791 4.33215C28.8791 3.47264 28.2812 2.78715 27.2764 2.78715H25.9853C25.5985 2.78715 25.3674 2.55513 25.3674 2.16492C25.3674 1.90127 25.4628 1.57434 26.0958 1.57434H28.9192C28.9795 1.18941 29.0097 0.946844 29.0649 0.56191H26.131C24.7645 0.56191 24.0762 1.16304 24.0762 2.16492C24.0762 3.15626 24.6741 3.67302 25.6789 3.67302H26.97C27.3568 3.67302 27.5879 3.99468 27.5879 4.33215C27.5879 4.55362 27.4925 5.01238 26.8645 5.01238H26.6485L22.5138 5.00183H21.7602C21.1222 5.00183 20.6751 4.62217 20.6751 3.74157V3.13517C20.6751 2.21765 21.0217 1.64816 21.7602 1.64816H22.9861C23.0413 1.25796 23.0765 1.01012 23.1267 0.641006H21.4538C20.2028 0.641006 19.3387 1.52161 19.3086 3.05607V3.74157C19.3387 5.27603 20.2028 6.00899 21.4538 6.00899H22.6746L24.9152 6.01426H26.8243Z" fill="white"/>
</svg>
