<svg width="29" height="23" viewBox="0 0 29 23" fill="none" xmlns="http://www.w3.org/2000/svg">
<path fill-rule="evenodd" clip-rule="evenodd" d="M27.3185 19.124V22.3772H26.8185V22.0954C26.66 22.3042 26.4197 22.4354 26.0928 22.4354C25.4486 22.4354 24.9436 21.9253 24.9436 21.2169C24.9436 20.5085 25.4489 19.9984 26.0928 19.9984C26.4197 19.9984 26.66 20.1295 26.8185 20.3384V19.124H27.3185ZM8.5771 20.0557L8.57654 22.3772H8.0775V22.0954C7.91904 22.3042 7.67855 22.4354 7.35183 22.4354C6.70763 22.4354 6.20258 21.9253 6.20258 21.2169C6.20258 20.5085 6.70791 19.9984 7.35183 19.9984C7.67869 19.9984 7.91904 20.1295 8.0775 20.3384V20.0557H8.5771ZM6.71701 21.2164C6.71701 20.8085 6.98158 20.4734 7.41399 20.4734C7.82721 20.4734 8.10606 20.7941 8.10606 21.2164C8.10606 21.6386 7.82721 21.9593 7.41399 21.9593C6.98158 21.9593 6.71701 21.6242 6.71701 21.2164ZM28.3156 22.1103C28.2717 22.0667 28.2127 22.0423 28.1511 22.0424L28.1518 22.04C28.1203 22.0398 28.0891 22.046 28.06 22.0584C28.0322 22.0696 28.0069 22.0864 27.9857 22.1079C27.9645 22.1288 27.9477 22.1537 27.9361 22.1812C27.9119 22.2383 27.9119 22.303 27.9361 22.3601C27.9475 22.3882 27.9641 22.414 27.985 22.4358C28.0065 22.4569 28.0317 22.4737 28.0593 22.4853C28.0884 22.4977 28.1196 22.5039 28.1511 22.5037C28.1823 22.5039 28.2132 22.4976 28.2418 22.4853C28.2692 22.4734 28.2941 22.4566 28.3156 22.4358C28.3365 22.4147 28.3533 22.3898 28.3652 22.3625C28.3893 22.3054 28.3893 22.2407 28.3652 22.1836C28.3536 22.1561 28.3368 22.1312 28.3156 22.1103ZM28.1511 22.451C28.1748 22.4512 28.1982 22.4464 28.2199 22.4368C28.2408 22.4277 28.2598 22.4147 28.2759 22.3985C28.292 22.3823 28.3049 22.3631 28.3138 22.342C28.3322 22.2972 28.3322 22.2468 28.3138 22.202C28.3047 22.1809 28.2919 22.1618 28.2759 22.1455C28.2598 22.1292 28.2408 22.1162 28.2199 22.1071C28.1981 22.0981 28.1747 22.0936 28.1511 22.0939C28.1272 22.0936 28.1034 22.0981 28.0811 22.1071C28.0598 22.1161 28.0403 22.1291 28.0239 22.1455C27.9733 22.1979 27.9586 22.2758 27.9865 22.3434C27.995 22.3646 28.0078 22.3838 28.0239 22.3999C28.0404 22.4163 28.0598 22.4293 28.0811 22.4382C28.1033 22.4478 28.1271 22.4526 28.1511 22.4524V22.451ZM28.2278 22.1815C28.2097 22.1682 28.1875 22.1617 28.1651 22.1631L28.0678 22.1633V22.3772H28.1129V22.3025H28.1381L28.1982 22.3772H28.2521L28.1849 22.2999C28.1883 22.2986 28.1916 22.2969 28.1947 22.2947C28.2085 22.2915 28.2214 22.285 28.2322 22.2755C28.2441 22.2641 28.2505 22.2481 28.2498 22.2316C28.2508 22.2123 28.2426 22.1937 28.2278 22.1815ZM28.1849 22.2999C28.18 22.3018 28.175 22.3026 28.1699 22.3025H28.1381L28.1338 22.2972H28.1129V22.3025L28.1124 22.2036L28.1699 22.2026C28.1807 22.2019 28.1915 22.2063 28.2008 22.2152C28.2083 22.2234 28.2127 22.2374 28.2123 22.2521C28.2127 22.267 28.2084 22.2813 28.2008 22.2899C28.1988 22.2917 28.1968 22.2933 28.1947 22.2947C28.1906 22.2956 28.1864 22.2963 28.1821 22.2966L28.1849 22.2999ZM25.4579 21.2164C25.4579 20.8085 25.7224 20.4734 26.155 20.4734C26.5686 20.4734 26.8471 20.7941 26.8471 21.2164C26.8471 21.6386 26.5686 21.9593 26.155 21.9593C25.7226 21.9593 25.4579 21.6242 25.4579 21.2164ZM14.7779 20.4495C15.0998 20.4496 15.3065 20.6535 15.3593 21.0123H14.1672C14.2205 20.6773 14.4219 20.4495 14.7779 20.4495ZM13.6435 21.2156C13.6435 20.492 14.1145 19.9971 14.7878 19.9971C15.4309 19.9971 15.8735 20.4921 15.8786 21.2155C15.8786 21.2822 15.8737 21.3445 15.8689 21.4062L15.8686 21.4095H14.1627C14.2348 21.8272 14.5279 21.9778 14.8499 21.9778C15.0804 21.9778 15.3257 21.8906 15.5183 21.7351L15.7631 22.109C15.4843 22.3469 15.1673 22.4341 14.8213 22.4341C14.1334 22.4341 13.6435 21.9535 13.6435 21.2156ZM20.8194 21.2155C20.8194 20.8076 21.084 20.4726 21.5164 20.4726C21.9296 20.4726 22.2085 20.7932 22.2085 21.2155C22.2085 21.6378 21.9296 21.9584 21.5164 21.9584C21.084 21.9584 20.8194 21.6234 20.8194 21.2155ZM22.6794 20.0557L22.6795 22.3772H22.18V22.0954C22.021 22.3042 21.7812 22.4354 21.4544 22.4354C20.8102 22.4354 20.3051 21.9253 20.3051 21.2169C20.3051 20.5085 20.8105 19.9984 21.4544 19.9984C21.7812 19.9984 22.021 20.1295 22.18 20.3384V20.0557H22.6794ZM17.9981 21.2155C17.9981 21.9194 18.4832 22.434 19.2237 22.434C19.5698 22.434 19.8003 22.3562 20.0496 22.1573L19.8097 21.7495C19.6221 21.8856 19.4252 21.9584 19.2078 21.9584C18.809 21.9535 18.5157 21.6622 18.5157 21.2155C18.5157 20.7688 18.809 20.4777 19.2078 20.4726C19.4246 20.4726 19.6216 20.5454 19.8097 20.6815L20.0496 20.2737C19.7999 20.0748 19.5694 19.997 19.2237 19.997C18.4832 19.997 17.9981 20.5115 17.9981 21.2155ZM23.833 20.337C23.9627 20.1331 24.1504 19.997 24.4387 19.997C24.5399 19.997 24.6838 20.0168 24.7944 20.0608L24.6404 20.5363C24.5411 20.4962 24.4349 20.4764 24.3279 20.478C24.0014 20.478 23.838 20.6913 23.838 21.0753V22.3759H23.3378V20.0557H23.833V20.337ZM11.0471 20.2402C10.8067 20.0801 10.4755 19.9974 10.1102 19.9974C9.52814 19.9974 9.15341 20.2792 9.15341 20.7402C9.15341 21.1185 9.43239 21.3519 9.94613 21.4247L10.1821 21.4587C10.4561 21.4975 10.5854 21.5704 10.5854 21.7014C10.5854 21.8808 10.4035 21.9832 10.0618 21.9832C9.71572 21.9832 9.46599 21.8715 9.29759 21.7404L9.06284 22.1339C9.33679 22.3377 9.68282 22.435 10.0576 22.435C10.7211 22.435 11.1056 22.1194 11.1056 21.6777C11.1056 21.2698 10.803 21.0565 10.3029 20.9837L10.0675 20.9492C9.85122 20.9209 9.67792 20.8769 9.67792 20.7214C9.67792 20.5518 9.84128 20.4497 10.1154 20.4497C10.4086 20.4497 10.6925 20.5614 10.8317 20.6486L11.0479 20.2407L11.0471 20.2402ZM16.8883 20.3379C17.0175 20.134 17.2052 19.9979 17.4934 19.9979C17.5946 19.9979 17.7385 20.0168 17.8491 20.0608L17.6951 20.5363C17.5958 20.4962 17.4896 20.4764 17.3827 20.478C17.0561 20.478 16.8928 20.6913 16.8928 21.0753V22.3759H16.3932V20.0557H16.8883V20.3379ZM13.2301 20.0557H12.4132V19.3518H11.9081V20.0557H11.4421V20.5168H11.9081V21.5753C11.9081 22.1136 12.115 22.4343 12.706 22.4343C12.9229 22.4343 13.1726 22.3664 13.331 22.2549L13.1867 21.8228C13.0376 21.9101 12.8743 21.954 12.7444 21.954C12.4946 21.954 12.4132 21.7985 12.4132 21.5657V20.5173H13.2301V20.0557ZM5.76079 20.9203V22.3765L5.25462 22.3753V21.084C5.25462 20.6907 5.09182 20.4723 4.75068 20.4723C4.41906 20.4723 4.18851 20.6863 4.18851 21.0891V22.3756H3.68345V21.0843C3.68345 20.691 3.51561 20.4726 3.18385 20.4726C2.8423 20.4726 2.62112 20.6866 2.62112 21.0894V22.3759H2.11719V20.0557H2.61721V20.3425C2.80492 20.0708 3.04471 19.998 3.2901 19.998C3.64118 19.998 3.89091 20.1535 4.04937 20.4108C4.26116 20.0852 4.56366 19.993 4.85693 19.998C5.41476 20.0029 5.76079 20.3719 5.76079 20.9203Z" fill="white"/>
<path fill-rule="evenodd" clip-rule="evenodd" d="M28.4083 14.3193V14.6626H28.346V14.4034L28.25 14.6272H28.1846L28.0885 14.404V14.6626H28.0254V14.3193H28.1145L28.2167 14.5549L28.3195 14.3193H28.4083ZM27.8448 14.3781V14.6626H27.7817V14.3781H27.668V14.3202H27.9585V14.3781H27.8448Z" fill="#F79410"/>
<path d="M18.4539 16.1136H10.8828V2.37207H18.454L18.4539 16.1136Z" fill="#FF5F00"/>
<path d="M11.3626 9.2432C11.3626 6.45574 12.655 3.97266 14.6673 2.37245C13.1441 1.15939 11.26 0.501021 9.32015 0.503916C4.54156 0.503916 0.667969 4.41657 0.667969 9.2432C0.667969 14.0698 4.54156 17.9825 9.32015 17.9825C11.2601 17.9854 13.1442 17.327 14.6675 16.114C12.6552 14.514 11.3626 12.0308 11.3626 9.2432Z" fill="#EB001B"/>
<path d="M28.6682 9.2432C28.6682 14.0698 24.7946 17.9825 20.016 17.9825C18.0759 17.9854 16.1916 17.327 14.668 16.114C16.6809 14.5138 17.9732 12.0308 17.9732 9.2432C17.9732 6.4556 16.6809 3.97266 14.668 2.37245C16.1915 1.15943 18.0758 0.501072 20.0159 0.503915C24.7944 0.503915 28.668 4.41657 28.668 9.2432" fill="#F79E1B"/>
</svg>
