<svg width="39" height="13" viewBox="0 0 39 13" fill="none" xmlns="http://www.w3.org/2000/svg">
<path fill-rule="evenodd" clip-rule="evenodd" d="M28.4882 1.00937L28.0457 3.49887C26.7188 2.78718 23.699 2.6188 23.6987 3.9296C23.6987 4.45034 24.3819 4.80847 25.2054 5.24011C26.4544 5.89474 28.0259 6.71846 28.0259 8.53492C28.0259 11.4375 24.8337 12.5039 22.7178 12.5039C20.6024 12.5039 19.2179 11.8493 19.2179 11.8493L19.6788 9.24629C20.9484 10.2383 24.7952 10.5202 24.7952 8.94704C24.7952 8.286 24.0379 7.89616 23.1598 7.4441C21.9482 6.82036 20.5065 6.07818 20.5065 4.34172C20.5065 1.15853 24.1606 0.503906 25.6993 0.503906C27.1227 0.503906 28.4882 1.00937 28.4882 1.00937ZM38.834 12.3039H35.9869L35.6237 10.5819H31.6819L31.0355 12.3039H27.8032L32.4277 1.57469C32.4277 1.57469 32.708 0.710744 33.8591 0.710744H36.3516L38.834 12.3039ZM11.5981 0.711054L8.64202 8.6847L8.29222 6.96766L7.24919 1.75486C7.24919 1.75486 7.12304 0.711054 5.77832 0.711054H0.891328L0.833984 0.907348C0.833984 0.907348 2.32843 1.21001 4.07743 2.23241L6.77133 12.3042H10.002L14.9352 0.711054H11.5981ZM17.3073 12.3039H14.2066L16.1445 0.711054H19.2456L17.3073 12.3039ZM32.5749 8.20311L34.2041 3.86479L35.1206 8.20311H32.5749Z" fill="white"/>
<path d="M8.29254 6.96817L7.24919 1.75474C7.24919 1.75474 7.12304 0.710938 5.77832 0.710938H0.891328L0.833984 0.907232C0.833984 0.907232 3.18286 1.38107 5.43585 3.1564C7.59007 4.85327 8.29254 6.96817 8.29254 6.96817Z" fill="white"/>
</svg>
