<svg width="50" height="50" viewBox="0 0 50 50" fill="none" xmlns="http://www.w3.org/2000/svg">
  <path
    d="M24.9984 22.9281C20.4144 22.9281 16.6984 19.2121 16.6984 14.6281C16.6984 10.0442 20.4144 6.32812 24.9984 6.32812C29.5823 6.32812 33.2984 10.0442 33.2984 14.6281C33.2984 19.2121 29.5823 22.9281 24.9984 22.9281Z"
    fill="#A1A1AA"/>
  <path
    d="M6.32472 42.0165C7.129 32.1131 15.1668 27.0781 24.9638 27.0781C34.8986 27.0781 43.061 31.8365 43.669 42.0181C43.6933 42.4237 43.669 43.6781 42.1103 43.6781C34.4212 43.6781 22.9954 43.6781 7.83293 43.6781C7.31254 43.6781 6.28091 42.5559 6.32472 42.0165Z"
    fill="#A1A1AA"/>
</svg>