<svg width="107" height="33" viewBox="0 0 107 33" fill="none" xmlns="http://www.w3.org/2000/svg">
  <g clip-path="url(#clip0_6696_11004)">
    <path
      d="M99.3116 0.696289H6.82871C6.58763 0.696289 6.34655 0.696289 6.10334 0.696289C5.57291 0.704002 5.04378 0.751067 4.52032 0.837097C4.00024 0.92518 3.49665 1.09209 3.02691 1.33206C2.55441 1.57362 2.12252 1.88746 1.74684 2.26224C1.37122 2.63721 1.05728 3.06924 0.816654 3.54231C0.57377 4.01873 0.405403 4.52959 0.317427 5.05706C0.229006 5.5795 0.181925 6.1081 0.176619 6.63794C0.163818 6.88329 0.163818 7.12224 0.163818 7.36545V26.031C0.163818 26.2763 0.163818 26.5153 0.176619 26.7606C0.18211 27.2905 0.22919 27.8191 0.317427 28.3415C0.404641 28.8615 0.570836 29.3652 0.810253 29.8349C1.29421 30.7904 2.06781 31.5685 3.02051 32.058C3.49045 32.2984 3.99389 32.4667 4.51392 32.5572C5.03744 32.6425 5.56656 32.6889 6.09694 32.6959C6.34015 32.6959 6.58123 32.6959 6.82231 32.6959H100.161C100.402 32.6959 100.647 32.6959 100.888 32.6959C101.417 32.6894 101.945 32.643 102.467 32.5572C102.992 32.4663 103.5 32.2981 103.975 32.058C104.449 31.819 104.882 31.5048 105.255 31.1278C105.633 30.7535 105.948 30.3214 106.19 29.8477C106.427 29.3774 106.592 28.8739 106.678 28.3543C106.767 27.8317 106.816 27.3033 106.826 26.7734C106.826 26.5281 106.826 26.2891 106.826 26.0438C106.826 25.7579 106.826 25.472 106.826 25.1904V8.22736C106.826 7.93721 106.826 7.65133 106.826 7.37398C106.826 7.13077 106.826 6.88756 106.826 6.64648C106.816 6.11658 106.767 5.58815 106.678 5.06559C106.591 4.54623 106.426 4.04287 106.19 3.57218C105.706 2.61387 104.934 1.83174 103.982 1.33632C103.506 1.09882 102.998 0.934122 102.473 0.847764C101.951 0.761266 101.424 0.714198 100.895 0.706956C100.654 0.706956 100.408 0.706956 100.167 0.706956L99.3116 0.696289Z"
      fill="#B6B6B6"/>
    <path
      d="M6.83303 32.007C6.59195 32.007 6.35727 32.007 6.11832 32.007C5.62373 32.0006 5.13029 31.9578 4.64197 31.879C4.18745 31.8018 3.74678 31.658 3.33417 31.4523C2.51441 31.0322 1.84672 30.366 1.42473 29.5472C1.21706 29.1346 1.0732 28.6929 0.998044 28.2372C0.916467 27.7478 0.872957 27.2528 0.867903 26.7566C0.867903 26.5902 0.855103 26.0355 0.855103 26.0355V7.3657C0.855103 7.3657 0.855103 6.81953 0.867903 6.65952C0.871593 6.16268 0.914394 5.6669 0.99591 5.17678C1.07009 4.71946 1.21399 4.27624 1.4226 3.86257C1.62997 3.45552 1.90155 3.08453 2.22691 2.76385C2.55186 2.43856 2.92541 2.16577 3.33417 1.95527C3.74586 1.74917 4.18589 1.60537 4.63984 1.52858C5.12941 1.44807 5.62435 1.40456 6.12045 1.39844H6.83303H100.163H100.884C101.376 1.40265 101.867 1.44545 102.352 1.52644C102.81 1.60166 103.255 1.7455 103.67 1.95313C104.492 2.37696 105.159 3.04877 105.578 3.87324C105.785 4.28376 105.929 4.72324 106.004 5.17678C106.086 5.67058 106.132 6.16972 106.141 6.67019C106.141 6.8942 106.141 7.13528 106.141 7.37423C106.141 7.67078 106.141 7.95239 106.141 8.22761V25.1672C106.141 25.4552 106.141 25.7347 106.141 26.0206C106.141 26.3065 106.141 26.5134 106.141 26.7566C106.133 27.2472 106.088 27.7364 106.006 28.2202C105.933 28.6791 105.789 29.1239 105.58 29.5386C105.156 30.3544 104.49 31.0185 103.672 31.4395C103.258 31.6474 102.814 31.7913 102.356 31.8662C101.868 31.9455 101.374 31.9883 100.88 31.9942C100.649 31.9942 100.406 31.9942 100.171 31.9942H6.83303V32.007Z"
      fill="black"/>
    <path
      d="M39.7586 22.2999H36.0058L35.0948 24.8046H33.4457L37.1152 15.4473H38.6726L42.4254 24.8046H40.6994L39.7586 22.2999ZM36.4837 21.0198H39.2785L38.2779 18.3402C38.1414 17.9711 38.0049 17.5615 37.8726 17.1135C37.751 17.5103 37.6187 17.9135 37.4779 18.3274L36.4837 21.0198Z"
      fill="white"/>
    <path
      d="M43.0888 19.5413C43.0888 19.025 43.0717 18.4561 43.0376 17.8345H44.531C44.5871 18.1271 44.6256 18.4228 44.6462 18.7199C44.9075 18.4068 45.2335 18.1539 45.6018 17.9786C45.97 17.8033 46.3718 17.7097 46.7797 17.7044C47.2579 17.6968 47.7274 17.8321 48.1284 18.0928C48.5293 18.3535 48.8434 18.7278 49.0305 19.1679C49.2929 19.773 49.4175 20.4289 49.3953 21.0881C49.4115 21.8068 49.2657 22.5199 48.9686 23.1746C48.7201 23.7179 48.3143 24.1742 47.8037 24.4845C47.2784 24.7881 46.6801 24.9422 46.0735 24.9304C45.5962 24.9301 45.1223 24.8493 44.6718 24.6914V27.578L43.076 27.7145L43.0888 19.5413ZM47.2832 23.0978C47.6074 22.6711 47.7717 22.031 47.7717 21.1777C47.7717 20.3997 47.6366 19.8307 47.3664 19.4709C47.2443 19.3037 47.0834 19.1685 46.8976 19.0771C46.7118 18.9857 46.5066 18.9407 46.2996 18.9461C46.0015 18.9421 45.7074 19.0156 45.4463 19.1594C45.1688 19.3166 44.9164 19.5143 44.6974 19.7461V23.4796C44.8742 23.563 45.0605 23.6246 45.2521 23.6631C45.4582 23.7077 45.6685 23.7306 45.8794 23.7314C46.1472 23.7474 46.4149 23.6981 46.6594 23.5878C46.904 23.4774 47.118 23.3092 47.2832 23.0978Z"
      fill="white"/>
    <path
      d="M50.366 19.5413C50.366 19.025 50.349 18.4561 50.3148 17.8345H51.8082C51.8661 18.1269 51.9053 18.4226 51.9256 18.7199C52.5471 18.0429 53.2583 17.7044 54.059 17.7044C54.5372 17.6968 55.0068 17.8321 55.4077 18.0928C55.8086 18.3535 56.1227 18.7278 56.3098 19.1679C56.5723 19.773 56.6969 20.4289 56.6746 21.0881C56.6942 21.806 56.552 22.5191 56.2586 23.1746C56.0095 23.7182 55.603 24.1745 55.0916 24.4845C54.5664 24.7884 53.968 24.9426 53.3614 24.9304C52.884 24.9301 52.4102 24.8493 51.9597 24.6914V27.578L50.3639 27.7145L50.366 19.5413ZM54.5668 23.0978C54.8911 22.6611 55.0532 22.0211 55.0532 21.1777C55.0532 20.3997 54.9188 19.8307 54.65 19.4709C54.5279 19.3037 54.367 19.1685 54.1812 19.0771C53.9954 18.9857 53.7903 18.9407 53.5833 18.9461C53.2852 18.9425 52.9912 19.016 52.7299 19.1594C52.4524 19.3166 52.2 19.5143 51.981 19.7461V23.4796C52.1581 23.5624 52.3443 23.624 52.5357 23.6631C52.7419 23.7077 52.9521 23.7306 53.163 23.7314C53.4307 23.7471 53.6983 23.6976 53.9428 23.5873C54.1873 23.4769 54.4014 23.3089 54.5668 23.0978Z"
      fill="white"/>
    <path
      d="M59.6081 24.3623C58.9263 23.9884 58.3726 23.4183 58.0187 22.7259C57.6319 21.9436 57.4415 21.0788 57.464 20.2063C57.4363 19.2729 57.6572 18.3488 58.104 17.5288C58.5075 16.8172 59.1135 16.2417 59.8449 15.8754C60.6136 15.4998 61.46 15.3105 62.3155 15.3228C62.8342 15.3206 63.3514 15.3808 63.8558 15.502C64.3276 15.6131 64.7855 15.7763 65.2212 15.9885L64.8073 17.2152C64.0527 16.8345 63.2224 16.6275 62.3773 16.6093C61.7808 16.5994 61.1922 16.7465 60.6706 17.036C60.1756 17.3201 59.7778 17.7469 59.5292 18.2606C59.2432 18.8699 59.1043 19.5378 59.1238 20.2106C59.1132 20.8167 59.2189 21.4193 59.4353 21.9856C59.6317 22.4869 59.9773 22.9158 60.4252 23.2145C60.9356 23.5338 61.5305 23.6914 62.132 23.6668C62.4437 23.666 62.7548 23.6396 63.0622 23.5878C63.3596 23.5405 63.6518 23.4648 63.9347 23.3617V21.4586H61.7714V20.2191H65.4858V24.1638C64.9469 24.415 64.3825 24.6074 63.8025 24.7377C63.2273 24.8702 62.639 24.9375 62.0488 24.9383C61.1993 24.9587 60.3588 24.7603 59.6081 24.3623Z"
      fill="white"/>
    <path
      d="M71.1544 24.8045C71.094 24.4998 71.0569 24.191 71.0434 23.8807C70.7769 24.1908 70.4512 24.4446 70.0855 24.6274C69.6726 24.8366 69.2149 24.942 68.7521 24.9346C68.3734 24.9394 67.9985 24.8585 67.6555 24.6978C67.3292 24.5448 67.0564 24.2973 66.8725 23.9874C66.6687 23.6362 66.5674 23.2348 66.5802 22.8289C66.5683 22.5211 66.6282 22.2146 66.7552 21.934C66.8822 21.6533 67.0728 21.406 67.312 21.2118C67.7984 20.8078 68.6099 20.6066 69.7463 20.608C70.1696 20.6078 70.5924 20.6378 71.0114 20.6976V20.5611C71.0114 19.9466 70.8806 19.5128 70.6189 19.2597C70.306 18.9905 69.9 18.8548 69.4881 18.882C69.1192 18.8865 68.7523 18.9367 68.3958 19.0314C68.0426 19.1166 67.6982 19.2351 67.3675 19.3855L67.1157 18.2249C67.4775 18.0705 67.8533 17.9512 68.2379 17.8687C68.7217 17.7593 69.2162 17.7049 69.7121 17.7065C70.2376 17.6922 70.7604 17.7858 71.2482 17.9817C71.6773 18.1714 72.0266 18.5049 72.236 18.9247C72.4978 19.4868 72.6201 20.1038 72.5923 20.7232V23.4967C72.5923 23.7812 72.6094 24.2178 72.6435 24.8066L71.1544 24.8045ZM70.1986 23.5244C70.5061 23.3815 70.7823 23.1792 71.0114 22.9292V21.6491C70.6573 21.6073 70.3012 21.5838 69.9447 21.5787C69.2862 21.5787 68.8303 21.6854 68.5771 21.8987C68.4536 22.0031 68.3555 22.1341 68.2901 22.2819C68.2246 22.4298 68.1937 22.5906 68.1995 22.7521C68.188 22.8917 68.2066 23.0322 68.2541 23.1639C68.3015 23.2957 68.3768 23.4158 68.4747 23.5159C68.6827 23.6913 68.9498 23.7806 69.2214 23.7655C69.5612 23.7604 69.8954 23.6779 70.1986 23.5244Z"
      fill="white"/>
    <path
      d="M73.8254 23.1317V14.8966L75.4127 14.7686V22.8479C75.3902 23.0722 75.4435 23.2976 75.5642 23.488C75.6252 23.5535 75.7003 23.6043 75.7838 23.6365C75.8674 23.6686 75.9572 23.6813 76.0464 23.6736C76.1911 23.6673 76.3344 23.6429 76.4731 23.601L76.6608 24.7446C76.4822 24.812 76.297 24.8606 76.1082 24.8896C75.9046 24.925 75.6984 24.9435 75.4917 24.9451C74.3808 24.938 73.8254 24.3335 73.8254 23.1317Z"
      fill="white"/>
    <path
      d="M77.7958 23.1317V14.8966L79.3852 14.7686V22.8479C79.3626 23.0722 79.416 23.2976 79.5367 23.488C79.5976 23.5535 79.6728 23.6043 79.7563 23.6365C79.8399 23.6686 79.9296 23.6813 80.0188 23.6736C80.1635 23.6673 80.3069 23.6429 80.4455 23.601L80.6311 24.7446C80.4532 24.812 80.2687 24.8606 80.0807 24.8896C79.8763 24.9251 79.6694 24.9436 79.462 24.9451C78.3526 24.938 77.7972 24.3335 77.7958 23.1317Z"
      fill="white"/>
    <path
      d="M87.1594 21.5227H82.6003C82.6728 22.9834 83.3683 23.7138 84.6868 23.7138C85.0252 23.712 85.3623 23.6719 85.6916 23.5943C86.028 23.516 86.3571 23.4089 86.6751 23.2743L87.025 24.3666C86.2036 24.7537 85.3046 24.9478 84.3966 24.9341C83.7462 24.9529 83.1016 24.806 82.5235 24.5074C82.0225 24.2367 81.6206 23.8139 81.3757 23.2999C81.1049 22.7044 80.9735 22.055 80.9916 21.4011C80.974 20.7159 81.1133 20.0357 81.3991 19.4127C81.6428 18.884 82.0368 18.4388 82.532 18.1327C83.0395 17.8337 83.62 17.6816 84.2089 17.6932C84.7933 17.6725 85.3697 17.8343 85.858 18.1561C86.2984 18.4618 86.6396 18.8897 86.8394 19.3871C87.0592 19.9289 87.168 20.5093 87.1594 21.0939V21.5227ZM85.6042 20.5093C85.6072 20.0564 85.4568 19.6157 85.1775 19.2591C85.0523 19.1189 84.8977 19.0079 84.7248 18.9342C84.5518 18.8605 84.3648 18.8257 84.1769 18.8324C83.9878 18.8285 83.8 18.8645 83.6258 18.938C83.4516 19.0115 83.2948 19.121 83.1656 19.2591C82.8648 19.6096 82.6806 20.0451 82.6387 20.505L85.6042 20.5093Z"
      fill="white"/>
    <path
      d="M88.3671 19.5863C88.3671 19.2044 88.3479 18.6198 88.3137 17.8368H89.8071C89.8327 18.031 89.8562 18.2635 89.8818 18.5302C89.9074 18.7969 89.9202 19.0188 89.9287 19.1873C90.0894 18.9154 90.2721 18.6571 90.4749 18.415C90.651 18.2081 90.8636 18.0353 91.1021 17.9051C91.3529 17.7698 91.6343 17.7014 91.9192 17.7067C92.1353 17.7014 92.351 17.728 92.5593 17.7856L92.3587 19.1681C92.1089 19.0958 91.8466 19.0774 91.5891 19.1142C91.3316 19.151 91.0849 19.2421 90.8653 19.3815C90.5122 19.6439 90.2045 19.9625 89.9543 20.3245V24.8047H88.3671V19.5863Z"
      fill="white"/>
    <path
      d="M93.4467 27.6572C93.2521 27.6257 93.0603 27.5793 92.8728 27.5185L93.163 26.3558C93.2972 26.3919 93.4332 26.4211 93.5704 26.4432C93.724 26.4705 93.8796 26.4848 94.0355 26.4859C94.7467 26.4859 95.2758 26.0315 95.6228 25.1226L95.7274 24.8645L93.1566 17.8369H94.8633L96.169 21.7646C96.3361 22.2698 96.4715 22.785 96.5743 23.3071C96.6959 22.8036 96.8368 22.3001 97.001 21.7966L98.3024 17.8369H99.9089L97.3488 24.8965C97.1556 25.4651 96.8926 26.0076 96.5658 26.5115C96.3166 26.8921 95.9764 27.2045 95.5759 27.4204C95.1467 27.63 94.673 27.7324 94.1955 27.719C93.9446 27.72 93.6941 27.6993 93.4467 27.6572Z"
      fill="white"/>
    <path
      d="M33.4457 6.53809H36.2832L36.2042 7.22506H34.2735V8.5542H36.0933V9.19423H34.2735V10.6663H36.3066L36.2362 11.3639H33.4457V6.53809Z"
      fill="white"/>
    <path
      d="M38.2438 8.90195L36.7504 6.53809H37.6976L38.7132 8.27471L39.7799 6.53809H40.6994L39.206 8.87208L40.821 11.3639H39.8609L38.711 9.46518L37.5398 11.3639H36.6202L38.2438 8.90195Z"
      fill="white"/>
    <path
      d="M41.4332 6.53809H42.7346C43.3448 6.53809 43.8127 6.66254 44.1384 6.91144C44.3005 7.03891 44.4293 7.20363 44.514 7.39158C44.5987 7.57953 44.6367 7.78516 44.6249 7.99096C44.6339 8.28494 44.56 8.57551 44.4115 8.82941C44.2667 9.0681 44.0554 9.25939 43.8035 9.37984C43.5236 9.51214 43.2169 9.57786 42.9074 9.57185C42.6926 9.56881 42.4784 9.54668 42.2674 9.50571V11.3639H41.4332V6.53809ZM43.524 8.69287C43.615 8.60546 43.686 8.49935 43.732 8.38186C43.7781 8.26436 43.7981 8.13828 43.7907 8.0123C43.8015 7.89157 43.7825 7.77003 43.7353 7.6584C43.688 7.54677 43.614 7.4485 43.5197 7.37227C43.2796 7.22603 43.0002 7.15749 42.7197 7.17599H42.2674V8.88275C42.4259 8.91131 42.5864 8.92771 42.7474 8.93182C43.0271 8.95281 43.3045 8.86748 43.524 8.69287Z"
      fill="white"/>
    <path d="M45.4484 6.53809H46.2804V10.6514H48.2773L48.2069 11.3639H45.4484V6.53809Z" fill="white"/>
    <path
      d="M49.5446 11.1266C49.1949 10.9299 48.9124 10.6325 48.7339 10.2732C48.5398 9.87498 48.444 9.43605 48.4544 8.99316C48.4442 8.53035 48.5467 8.072 48.7531 7.65762C48.9422 7.2841 49.2396 6.97629 49.6064 6.77437C50.0171 6.55931 50.4766 6.4549 50.9398 6.47142C51.3779 6.45967 51.8112 6.56341 52.1965 6.77224C52.544 6.96969 52.8242 7.267 53.0008 7.62562C53.191 8.01971 53.2853 8.45324 53.276 8.89075C53.2875 9.35873 53.1842 9.8224 52.9752 10.2412C52.7842 10.6134 52.4872 10.9208 52.1218 11.1245C51.7184 11.3391 51.2665 11.4463 50.8097 11.436C50.368 11.4471 49.9313 11.3403 49.5446 11.1266ZM51.7036 10.5356C51.9388 10.3798 52.1217 10.1568 52.2285 9.89561C52.3482 9.59663 52.4069 9.27675 52.4013 8.95476C52.4066 8.63866 52.3546 8.32422 52.2477 8.02671C52.1519 7.76902 51.981 7.54603 51.757 7.38667C51.4972 7.22771 51.1985 7.14359 50.894 7.14359C50.5894 7.14359 50.2908 7.22771 50.031 7.38667C49.7951 7.5503 49.6114 7.77844 49.5019 8.04377C49.3805 8.33043 49.3202 8.63923 49.3248 8.95049C49.3197 9.27116 49.3762 9.58984 49.4912 9.88921C49.5934 10.1631 49.7803 10.3972 50.0247 10.5576C50.2691 10.718 50.5583 10.7963 50.8502 10.781C51.1531 10.7884 51.451 10.7028 51.7036 10.5356Z"
      fill="white"/>
    <path
      d="M54.2041 6.53723H55.7146C56.1571 6.50591 56.5975 6.62221 56.9669 6.86792C57.1087 6.97919 57.2214 7.12301 57.2957 7.28717C57.37 7.45133 57.4036 7.63099 57.3936 7.8109C57.3986 8.04484 57.3459 8.2764 57.24 8.48507C57.1474 8.66805 57.0182 8.83 56.8603 8.96083C56.7191 9.07482 56.5606 9.16556 56.3909 9.22965L57.8843 11.3631H56.9136L55.657 9.44299H55.0447V11.3631H54.2041V6.53723ZM55.5119 8.82003C55.6972 8.82407 55.8808 8.78384 56.0474 8.70268C56.1975 8.63062 56.324 8.51742 56.4122 8.37627C56.5003 8.2256 56.5453 8.05366 56.5424 7.87917C56.551 7.77847 56.5344 7.67721 56.4942 7.58449C56.454 7.49176 56.3914 7.41048 56.312 7.34794C56.1119 7.22272 55.8775 7.16375 55.6421 7.1794H55.0383V8.82856L55.5119 8.82003Z"
      fill="white"/>
    <path
      d="M58.535 6.53809H61.3789L61.2978 7.22506H59.3777V8.5542H61.1805V9.19423H59.3607V10.6663H61.3939L61.332 11.3639H58.535V6.53809Z"
      fill="white"/>
    <path d="M64.4724 6.53809H65.3045V11.3639H64.4724V6.53809Z" fill="white"/>
    <path
      d="M67.5083 7.23359H66.0149L66.0874 6.53809H69.8423L69.7655 7.23359H68.3425V11.3639H67.5083V7.23359Z"
      fill="white"/>
    <path
      d="M73.4584 11.1265C73.1094 10.9297 72.8277 10.6323 72.6499 10.2732C72.454 9.87545 72.3574 9.43625 72.3683 8.99309C72.358 8.53027 72.4606 8.07192 72.6669 7.65755C72.8567 7.28441 73.1539 6.97675 73.5203 6.7743C73.9278 6.55818 74.3841 6.45089 74.8452 6.46282C75.2883 6.45088 75.7266 6.55769 76.1146 6.77217C76.4626 6.96898 76.743 7.26647 76.9189 7.62554C77.1099 8.01946 77.2049 8.45299 77.1962 8.89068C77.2081 9.35893 77.104 9.82284 76.8933 10.2412C76.7029 10.6138 76.4058 10.9213 76.0399 11.1244C75.6367 11.3396 75.1847 11.4469 74.7278 11.4359C74.2847 11.4478 73.8464 11.341 73.4584 11.1265ZM75.6196 10.5356C75.8537 10.379 76.0357 10.1562 76.1423 9.89553C76.262 9.59656 76.3208 9.27668 76.3151 8.95468C76.3205 8.63859 76.2684 8.32415 76.1615 8.02663C76.0666 7.76909 75.8964 7.54608 75.673 7.3866C75.4129 7.22745 75.1138 7.14324 74.8089 7.14324C74.504 7.14324 74.205 7.22745 73.9449 7.3866C73.709 7.55023 73.5253 7.77837 73.4158 8.0437C73.2954 8.33066 73.2351 8.63925 73.2387 8.95042C73.2336 9.27109 73.29 9.58977 73.4051 9.88913C73.5069 10.1523 73.6843 10.3795 73.915 10.542C74.1676 10.7087 74.466 10.7922 74.7684 10.7809C75.0704 10.7871 75.3672 10.7016 75.6196 10.5356Z"
      fill="white"/>
    <path
      d="M78.12 6.53809H79.0758L81.4631 10.278C81.4418 9.92174 81.4332 9.59532 81.4332 9.2945V6.53809H82.2055V11.3639H81.2796L78.856 7.56428C78.8795 7.99096 78.8923 8.37712 78.8923 8.71207V11.3639H78.12V6.53809Z"
      fill="white"/>
    <path fill-rule="evenodd" clip-rule="evenodd"
      d="M21.7116 6.56348H12.8557C8.6805 6.56348 7.15295 8.09103 7.15295 12.2662V21.1285C7.15295 25.3037 8.6805 26.8312 12.8557 26.8312H21.7116C25.8868 26.8312 27.4164 25.3037 27.4164 21.1285V12.2662C27.4207 8.09103 25.8932 6.56348 21.7116 6.56348Z"
      fill="#C8102E"/>
    <path
      d="M11.166 16.6973H11.7036V19.3491H11.166V18.2718H9.95206V19.3491H9.41443V16.6973H9.95206V17.764H11.166V16.6973ZM14.1955 18.2141C14.1955 18.6408 13.9821 18.8755 13.5939 18.8755C13.2056 18.8755 12.988 18.6408 12.988 18.1907V16.6973H12.4503V18.212C12.4503 18.9566 12.8642 19.3833 13.5853 19.3833C14.3064 19.3833 14.7331 18.9566 14.7331 18.1885V16.6973H14.1955V18.2141ZM20.4081 18.5192L19.8065 16.6973H19.3648L18.7675 18.5214L18.1808 16.6973H17.609L18.5328 19.3491H18.9787L19.5782 17.6082L20.1798 19.3491H20.63L21.5538 16.6973H20.9948L20.4081 18.5192ZM22.5159 18.2056H23.4952V17.7256H22.5159V17.1837H23.9368V16.6973H21.9868V19.3427H23.988V18.8649H22.5159V18.2056ZM24.6281 19.3427H25.1593V16.6973H24.6281V19.3427ZM15.7956 18.7944L15.5545 19.3449H15.0062L16.1647 16.6973H16.6383L17.801 19.3449H17.2463L17.018 18.7966L15.7956 18.7944ZM15.9961 18.3166H16.8047L16.3993 17.3693L15.9961 18.3166Z"
      fill="white"/>
    <path
      d="M17.2869 13.3242C16.3925 13.3236 15.5349 12.968 14.9025 12.3356C14.2701 11.7032 13.9145 10.8456 13.9139 9.95117H14.3897C14.3897 10.7196 14.6949 11.4565 15.2383 11.9998C15.7816 12.5432 16.5185 12.8484 17.2869 12.8484C18.0553 12.8484 18.7922 12.5432 19.3356 11.9998C19.8789 11.4565 20.1841 10.7196 20.1841 9.95117H20.6599C20.6593 10.8456 20.3038 11.7032 19.6714 12.3356C19.0389 12.968 18.1813 13.3236 17.2869 13.3242Z"
      fill="white"/>
  </g>
  <defs>
    <clipPath id="clip0_6696_11004">
      <rect width="106.672" height="32.0017" fill="white" transform="translate(0.163818 0.696289)"/>
    </clipPath>
  </defs>
</svg>